<svg xmlns="http://www.w3.org/2000/svg" width="16.502" height="24.5" viewBox="0 0 16.502 24.5">
  <g id="Phones-Mobile-Devices_Mobile-Phones_mobile-phone-3" data-name="Phones-Mobile-Devices / Mobile-Phones / mobile-phone-3" transform="translate(-371.821 -828.21)">
    <g id="Group_72" data-name="Group 72">
      <g id="mobile-phone-3">
        <path id="Rectangle-path_17" data-name="Rectangle-path 17" d="M372.571,833.96a1,1,0,0,1,1-1h13a1,1,0,0,1,1,1v11a1,1,0,0,1-1,1h-13a1,1,0,0,1-1-1Z" fill="none" stroke="#1d1d1b" stroke-linecap="round" stroke-linejoin="round" stroke-width="1.5"/>
        <path id="Rectangle-path_18" data-name="Rectangle-path 18" d="M372.573,831.96a3,3,0,0,1,3-3h9a3,3,0,0,1,3,3v17a3,3,0,0,1-3,3h-9a3,3,0,0,1-3-3Z" fill="none" stroke="#1d1d1b" stroke-linecap="round" stroke-linejoin="round" stroke-width="1.5"/>
        <path id="Shape_297" data-name="Shape 297" d="M377.573,830.96h5" fill="none" stroke="#1d1d1b" stroke-linecap="round" stroke-linejoin="round" stroke-width="1.5"/>
        <path id="Rectangle-path_19" data-name="Rectangle-path 19" d="M378.573,848.96a1,1,0,0,1,1-1h1a1,1,0,0,1,1,1h0a1,1,0,0,1-1,1h-1a1,1,0,0,1-1-1Z" fill="none" stroke="#1d1d1b" stroke-linecap="round" stroke-linejoin="round" stroke-width="1.5"/>
      </g>
    </g>
  </g>
</svg>
