<svg xmlns="http://www.w3.org/2000/svg" width="33.5" height="33.5" viewBox="0 0 33.5 33.5">
  <g id="Logos_Photos_Images_social-instagram" data-name="Logos / Photos/Images / social-instagram" transform="translate(-541.756 -562.943)">
    <g id="Group_63" data-name="Group 63" transform="translate(542.506 563.693)">
      <g id="social-instagram">
        <path id="Rectangle-path_8" data-name="Rectangle-path 8" d="M542.506,572.041a8.348,8.348,0,0,1,8.348-8.348h15.3a8.347,8.347,0,0,1,8.348,8.348v15.3a8.347,8.347,0,0,1-8.348,8.348h-15.3a8.348,8.348,0,0,1-8.348-8.348Z" transform="translate(-542.506 -563.693)" fill="none" stroke="#f7b64f" stroke-linecap="round" stroke-linejoin="round" stroke-width="1.5"/>
        <path id="Oval_27" data-name="Oval 27" d="M556.356,585.893a8.35,8.35,0,1,0-8.35-8.35A8.349,8.349,0,0,0,556.356,585.893Z" transform="translate(-540.356 -561.543)" fill="none" stroke="#f7b64f" stroke-linecap="round" stroke-linejoin="round" stroke-width="1.5"/>
        <path id="Oval_28" data-name="Oval 28" d="M561.592,570.866a2.086,2.086,0,1,0-2.086-2.086A2.086,2.086,0,0,0,561.592,570.866Z" transform="translate(-535.851 -562.52)" fill="none" stroke="#f7b64f" stroke-linecap="round" stroke-linejoin="round" stroke-width="1.5"/>
      </g>
    </g>
  </g>
</svg>
