<svg xmlns="http://www.w3.org/2000/svg" width="27.021" height="14.88" viewBox="0 0 27.021 14.88">
  <g id="Emails_Send-Email_send-email-envelope" data-name="Emails / Send-Email / send-email-envelope" transform="translate(-279.825 -90.221)">
    <g id="Group_4" data-name="Group 4" transform="translate(280.575 91.046)">
      <g id="send-email-envelope">
        <path id="Shape_9" data-name="Shape 9" d="M303.264,103.464a1.11,1.11,0,0,1-1.085.887H286.145a1.109,1.109,0,0,1-1.085-1.33l2.31-11.087a1.109,1.109,0,0,1,1.085-.887h16.029a1.107,1.107,0,0,1,1.084,1.33Z" transform="translate(-280.09 -91.046)" fill="none" stroke="#f7b64f" stroke-linecap="round" stroke-linejoin="round" stroke-width="1.5"/>
        <path id="Shape_10" data-name="Shape 10" d="M287.5,91.258l5.673,6.11a2.217,2.217,0,0,0,2.9.307l8.975-6.282" transform="translate(-279.822 -91.023)" fill="none" stroke="#f7b64f" stroke-linecap="round" stroke-linejoin="round" stroke-width="1.5"/>
        <path id="Shape_11" data-name="Shape 11" d="M280.575,92.046h4.435" transform="translate(-280.575 -90.937)" fill="none" stroke="#f7b64f" stroke-linecap="round" stroke-linejoin="round" stroke-width="1.5"/>
        <path id="Shape_12" data-name="Shape 12" d="M280.575,95.046H283.9" transform="translate(-280.575 -90.611)" fill="none" stroke="#f7b64f" stroke-linecap="round" stroke-linejoin="round" stroke-width="1.5"/>
        <path id="Shape_13" data-name="Shape 13" d="M280.575,98.046h2.217" transform="translate(-280.575 -90.285)" fill="none" stroke="#f7b64f" stroke-linecap="round" stroke-linejoin="round" stroke-width="1.5"/>
      </g>
    </g>
  </g>
</svg>
